<?xml version="1.0" encoding="utf-8"?>
<svg width="29px" height="29px" viewBox="0 0 29 29" version="1.1" xmlns:xlink="http://www.w3.org/1999/xlink" xmlns="http://www.w3.org/2000/svg">
  <defs>
    <path d="M14.5 29C22.5081 29 29 22.5081 29 14.5C29 6.49187 22.5081 0 14.5 0C6.49187 0 0 6.49187 0 14.5C0 22.5081 6.49187 29 14.5 29Z" id="path_1" />
    <path d="M0 0L23 0L23 10L0 10L0 0Z" transform="translate(0 0.9)" id="path_2" />
    <clipPath id="clip_1">
      <use xlink:href="#path_1" />
    </clipPath>
    <clipPath id="mask_1">
      <use xlink:href="#path_2" />
    </clipPath>
  </defs>
  <g id="编组-7">
    <g id="椭圆形备份-2">
      <g clip-path="url(#clip_1)">
        <use xlink:href="#path_1" fill="none" stroke="#FFFFFF" stroke-width="2" />
      </g>
    </g>
    <g id="编组" transform="translate(3 9.1)">
      <path d="M0 0L23 0L23 10L0 10L0 0Z" transform="translate(0 0.9)" id="Clip-2" fill="none" fill-rule="evenodd" stroke="none" />
      <g clip-path="url(#mask_1)">
        <path d="M5.68934 8.7588C7.67544 8.81623 9.34113 7.08244 9.34584 5.01753C9.35056 2.93674 7.74023 1.24083 5.72822 1.22128C3.72915 1.20173 2.09056 2.89764 2.07289 4.97721C2.05522 7.09099 3.74447 8.7979 5.68934 8.7588M17.2867 8.76247C19.307 8.80157 20.9491 7.07266 20.9432 5.00287C20.9373 2.91719 19.3647 1.23472 17.2985 1.22128C15.2358 1.20906 13.6573 2.98073 13.6479 4.99187C13.6396 6.99325 15.2606 8.81012 17.2867 8.76247M6.08397 0.00188319C7.28199 0.0544223 8.58015 0.676338 9.53786 1.98493C9.75225 2.27695 10.0515 2.28428 10.3389 2.33437C11.1164 2.47122 11.8974 2.459 12.6772 2.33926C13.0212 2.2855 13.311 2.18409 13.556 1.8713C14.6327 0.495506 16.0545 -0.119079 17.7473 0.0189889C18.7545 0.102074 19.6898 0.48451 20.4178 1.22372C20.8349 1.6477 21.3225 1.79799 21.8385 1.94827C22.1189 2.03014 22.4028 2.09734 22.6784 2.1902C22.7703 2.22074 22.8728 2.29283 22.9199 2.37714C23.0954 2.69359 22.9658 3.56599 22.6926 3.79936C22.2626 4.16713 22.1036 4.63143 22.0977 5.1947C22.0717 7.38301 20.4626 9.23532 18.6579 9.79248C16.1535 10.5647 13.5018 9.08381 12.702 6.51795C12.5571 6.05121 12.5524 5.53926 12.4711 5.05052C12.4157 4.72307 12.3674 4.38951 12.2649 4.07672C12.1495 3.7236 11.7808 3.50001 11.4568 3.522C11.1258 3.54522 10.7712 3.84334 10.6782 4.227C10.6051 4.52635 10.5568 4.83792 10.5415 5.14582C10.4437 7.09466 9.32464 8.87488 7.47283 9.64586C5.00492 10.6722 2.30613 9.36483 1.31779 7.04945C1.04685 6.41287 0.860731 5.74941 0.884291 5.04441C0.899604 4.57767 0.757067 4.18302 0.407202 3.89955C-0.0840233 3.50245 -0.0345474 2.98684 0.0655824 2.45289C0.116236 2.18775 0.351836 2.16087 0.545027 2.10222C0.992666 1.96538 1.44855 1.85786 1.89383 1.71368C2.04344 1.66481 2.19187 1.56828 2.30496 1.45343C3.22379 0.526052 4.4442 0.000661351 6.08397 0.00188319" transform="translate(0 0.9)" id="Fill-1" fill="#FEFEFE" fill-rule="evenodd" stroke="none" />
      </g>
    </g>
  </g>
</svg>