<?xml version="1.0" encoding="utf-8"?>
<svg width="133px" height="37px" viewBox="0 0 133 37" version="1.1" xmlns:xlink="http://www.w3.org/1999/xlink" xmlns="http://www.w3.org/2000/svg">
  <g id="编组">
    <path d="M0 1.646L83.423 1.646L83.423 0L0 0L0 1.646Z" transform="translate(24.468018 0)" id="Fill-1" fill="#FFFFFF" fill-rule="evenodd" stroke="none" />
    <path d="M0 1.647L112.908 1.647L112.908 0L0 0L0 1.647Z" transform="translate(8 34.582)" id="Fill-2" fill="#FFFFFF" fill-rule="evenodd" stroke="none" />
    <path d="M0 1.646L112.908 1.646L112.908 0L0 0L0 1.646Z" transform="translate(8 29.641998)" id="Fill-3" fill="#FFFFFF" fill-rule="evenodd" stroke="none" />
    <path d="M0 3.294L3.293 3.294L3.293 0L0 0L0 3.294Z" transform="translate(16.234009 9.880005)" id="Fill-4" fill="#FFFFFF" fill-rule="evenodd" stroke="none" />
    <path d="M0 3.294L3.293 3.294L3.293 0L0 0L0 3.294Z" transform="translate(17.880981 6.586014)" id="Fill-5" fill="#FFFFFF" fill-rule="evenodd" stroke="none" />
    <path d="M0 3.293L3.294 3.293L3.294 0L0 0L0 3.293Z" transform="translate(14.587036 13.174011)" id="Fill-6" fill="#FFFFFF" fill-rule="evenodd" stroke="none" />
    <path d="M0 3.294L3.293 3.294L3.293 0L0 0L0 3.294Z" transform="translate(12.94104 16.46701)" id="Fill-7" fill="#FFFFFF" fill-rule="evenodd" stroke="none" />
    <path d="M0 3.294L3.293 3.294L3.293 0L0 0L0 3.294Z" transform="translate(11.293945 19.761002)" id="Fill-8" fill="#FFFFFF" fill-rule="evenodd" stroke="none" />
    <path d="M0 3.293L3.294 3.293L3.294 0L0 0L0 3.293Z" transform="translate(9.646973 23.055008)" id="Fill-9" fill="#FFFFFF" fill-rule="evenodd" stroke="none" />
    <path d="M0 3.294L3.294 3.294L3.294 0L0 0L0 3.294Z" transform="translate(8 26.348007)" id="Fill-10" fill="#FFFFFF" fill-rule="evenodd" stroke="none" />
    <path d="M0 3.294L3.294 3.294L3.294 0L0 0L0 3.294Z" transform="translate(8 29.641998)" id="Fill-11" fill="#FFFFFF" fill-rule="evenodd" stroke="none" />
    <path d="M0 3.293L3.294 3.293L3.294 0L0 0L0 3.293Z" transform="translate(8 32.936005)" id="Fill-12" fill="#FFFFFF" fill-rule="evenodd" stroke="none" />
    <path d="M0 3.294L3.293 3.294L3.293 0L0 0L0 3.294Z" transform="translate(112.67395 9.880005)" id="Fill-13" fill="#FFFFFF" fill-rule="evenodd" stroke="none" />
    <path d="M0 3.293L3.293 3.293L3.293 0L0 0L0 3.293Z" transform="translate(111.10596 6.597)" id="Fill-14" fill="#FFFFFF" fill-rule="evenodd" stroke="none" />
    <path d="M0 3.293L3.293 3.293L3.293 0L0 0L0 3.293Z" transform="translate(109.537964 3.2830048)" id="Fill-15" fill="#FFFFFF" fill-rule="evenodd" stroke="none" />
    <path d="M0 3.293L3.294 3.293L3.294 0L0 0L0 3.293Z" transform="translate(107.89099 0)" id="Fill-16" fill="#FFFFFF" fill-rule="evenodd" stroke="none" />
    <path d="M0 3.293L3.293 3.293L3.293 0L0 0L0 3.293Z" transform="translate(114.321045 13.174011)" id="Fill-17" fill="#FFFFFF" fill-rule="evenodd" stroke="none" />
    <path d="M0 3.294L3.293 3.294L3.293 0L0 0L0 3.294Z" transform="translate(115.96704 16.46701)" id="Fill-18" fill="#FFFFFF" fill-rule="evenodd" stroke="none" />
    <path d="M0 3.294L3.293 3.294L3.293 0L0 0L0 3.294Z" transform="translate(117.61401 19.761002)" id="Fill-19" fill="#FFFFFF" fill-rule="evenodd" stroke="none" />
    <path d="M0 3.293L3.294 3.293L3.294 0L0 0L0 3.293Z" transform="translate(119.26099 23.055008)" id="Fill-20" fill="#FFFFFF" fill-rule="evenodd" stroke="none" />
    <path d="M0 3.294L3.294 3.294L3.294 0L0 0L0 3.294Z" transform="translate(120.90796 26.348007)" id="Fill-21" fill="#FFFFFF" fill-rule="evenodd" stroke="none" />
    <path d="M0 3.294L3.294 3.294L3.294 0L0 0L0 3.294Z" transform="translate(120.90796 29.641998)" id="Fill-22" fill="#FFFFFF" fill-rule="evenodd" stroke="none" />
    <path d="M0 3.293L3.294 3.293L3.294 0L0 0L0 3.293Z" transform="translate(120.90796 32.936005)" id="Fill-23" fill="#FFFFFF" fill-rule="evenodd" stroke="none" />
    <path d="M0 3.293L3.294 3.293L3.294 0L0 0L0 3.293Z" transform="translate(19.526978 3.2929993)" id="Fill-24" fill="#FFFFFF" fill-rule="evenodd" stroke="none" />
    <path d="M0 3.293L3.294 3.293L3.294 0L0 0L0 3.293Z" transform="translate(21.17395 0)" id="Fill-25" fill="#FFFFFF" fill-rule="evenodd" stroke="none" />
  </g>
</svg>