<?xml version="1.0" encoding="utf-8"?>
<svg width="32px" height="14px" viewBox="0 0 32 14" version="1.1" xmlns:xlink="http://www.w3.org/1999/xlink" xmlns="http://www.w3.org/2000/svg">
  <g id="编组-10">
    <path d="M0 0L32 0L32 14L0 14L0 0Z" id="矩形备份-5" fill="#30384B" fill-rule="evenodd" stroke="none" />
    <g id="MAX" fill="#FFFFFF" transform="translate(4 1)">
      <path d="M1.93848 2.67969L4.17969 5.37012L6.4209 2.67969L7.59766 2.67969L7.59766 9.50098L6.2793 9.50098L6.2793 4.71094L6.24023 4.71094L4.26758 7.11328L4.08203 7.11328L2.10938 4.71094L2.07031 4.71094L2.07031 9.50098L0.751953 9.50098L0.751953 2.67969L1.93848 2.67969ZM12.5586 2.67969L15.5713 9.50098L14.1797 9.50098L13.4717 7.84082L10.4395 7.84082L9.78027 9.50098L8.39844 9.50098L11.2109 2.67969L12.5586 2.67969ZM19.4287 4.98926L17.5488 2.67969L15.8887 2.67969L18.5889 5.9707L15.6982 9.50098L17.3584 9.50098L19.4287 6.95215L21.499 9.50098L23.1689 9.50098L20.249 5.9707L22.9199 2.67969L21.2793 2.67969L19.4287 4.98926ZM10.8398 6.83984L13.042 6.83984L11.8896 4.13965L10.8398 6.83984Z" />
    </g>
  </g>
</svg>