<?xml version="1.0" encoding="utf-8"?>
<svg width="133px" height="37px" viewBox="0 0 133 37" version="1.1" xmlns:xlink="http://www.w3.org/1999/xlink" xmlns="http://www.w3.org/2000/svg">
  <g id="编组">
    <path d="M0 0L114 0L114 5L0 5L0 0Z" transform="translate(9 31)" id="矩形备份-8" fill="#BD3131" fill-rule="evenodd" stroke="none" />
    <path d="M14.2507 0L100.538 0L114 30L0 30L14.2507 0Z" transform="translate(9 1)" id="矩形备份-7" fill="#F25757" fill-rule="evenodd" stroke="none" />
    <path d="M0 1.646L83.423 1.646L83.423 0L0 0L0 1.646Z" transform="translate(24.468 0.0008)" id="Fill-1" fill="#FFFFFF" fill-rule="evenodd" stroke="none" />
    <path d="M0 1.647L112.908 1.647L112.908 0L0 0L0 1.647Z" transform="translate(8 34.5828)" id="Fill-2" fill="#FFFFFF" fill-rule="evenodd" stroke="none" />
    <path d="M0 1.646L112.908 1.646L112.908 0L0 0L0 1.646Z" transform="translate(8 29.6428)" id="Fill-3" fill="#FFFFFF" fill-rule="evenodd" stroke="none" />
    <path d="M0 3.294L3.293 3.294L3.293 0L0 0L0 3.294Z" transform="translate(16.234 9.8808)" id="Fill-4" fill="#FFFFFF" fill-rule="evenodd" stroke="none" />
    <path d="M0 3.294L3.293 3.294L3.293 0L0 0L0 3.294Z" transform="translate(17.881 6.5868)" id="Fill-5" fill="#FFFFFF" fill-rule="evenodd" stroke="none" />
    <path d="M0 3.293L3.294 3.293L3.294 0L0 0L0 3.293Z" transform="translate(14.587 13.1748)" id="Fill-6" fill="#FFFFFF" fill-rule="evenodd" stroke="none" />
    <path d="M0 3.294L3.293 3.294L3.293 0L0 0L0 3.294Z" transform="translate(12.941 16.4678)" id="Fill-7" fill="#FFFFFF" fill-rule="evenodd" stroke="none" />
    <path d="M0 3.294L3.293 3.294L3.293 0L0 0L0 3.294Z" transform="translate(11.294 19.7618)" id="Fill-8" fill="#FFFFFF" fill-rule="evenodd" stroke="none" />
    <path d="M0 3.293L3.294 3.293L3.294 0L0 0L0 3.293Z" transform="translate(9.647 23.0558)" id="Fill-9" fill="#FFFFFF" fill-rule="evenodd" stroke="none" />
    <path d="M0 3.294L3.294 3.294L3.294 0L0 0L0 3.294Z" transform="translate(8 26.3488)" id="Fill-10" fill="#FFFFFF" fill-rule="evenodd" stroke="none" />
    <path d="M0 3.294L3.294 3.294L3.294 0L0 0L0 3.294Z" transform="translate(8 29.6428)" id="Fill-11" fill="#FFFFFF" fill-rule="evenodd" stroke="none" />
    <path d="M0 3.293L3.294 3.293L3.294 0L0 0L0 3.293Z" transform="translate(8 32.9368)" id="Fill-12" fill="#FFFFFF" fill-rule="evenodd" stroke="none" />
    <path d="M0 3.294L3.293 3.294L3.293 0L0 0L0 3.294Z" transform="translate(112.674 9.8808)" id="Fill-13" fill="#FFFFFF" fill-rule="evenodd" stroke="none" />
    <path d="M0 3.293L3.293 3.293L3.293 0L0 0L0 3.293Z" transform="translate(111.106 6.5978)" id="Fill-14" fill="#FFFFFF" fill-rule="evenodd" stroke="none" />
    <path d="M0 3.293L3.293 3.293L3.293 0L0 0L0 3.293Z" transform="translate(109.538 3.2838)" id="Fill-15" fill="#FFFFFF" fill-rule="evenodd" stroke="none" />
    <path d="M0 3.293L3.294 3.293L3.294 0L0 0L0 3.293Z" transform="translate(107.891 0.0008)" id="Fill-16" fill="#FFFFFF" fill-rule="evenodd" stroke="none" />
    <path d="M0 3.293L3.293 3.293L3.293 0L0 0L0 3.293Z" transform="translate(114.321 13.1748)" id="Fill-17" fill="#FFFFFF" fill-rule="evenodd" stroke="none" />
    <path d="M0 3.294L3.293 3.294L3.293 0L0 0L0 3.294Z" transform="translate(115.967 16.4678)" id="Fill-18" fill="#FFFFFF" fill-rule="evenodd" stroke="none" />
    <path d="M0 3.294L3.293 3.294L3.293 0L0 0L0 3.294Z" transform="translate(117.614 19.7618)" id="Fill-19" fill="#FFFFFF" fill-rule="evenodd" stroke="none" />
    <path d="M0 3.293L3.294 3.293L3.294 0L0 0L0 3.293Z" transform="translate(119.261 23.0558)" id="Fill-20" fill="#FFFFFF" fill-rule="evenodd" stroke="none" />
    <path d="M0 3.294L3.294 3.294L3.294 0L0 0L0 3.294Z" transform="translate(120.908 26.3488)" id="Fill-21" fill="#FFFFFF" fill-rule="evenodd" stroke="none" />
    <path d="M0 3.294L3.294 3.294L3.294 0L0 0L0 3.294Z" transform="translate(120.908 29.6428)" id="Fill-22" fill="#FFFFFF" fill-rule="evenodd" stroke="none" />
    <path d="M0 3.293L3.294 3.293L3.294 0L0 0L0 3.293Z" transform="translate(120.908 32.9368)" id="Fill-23" fill="#FFFFFF" fill-rule="evenodd" stroke="none" />
    <path d="M0 3.293L3.294 3.293L3.294 0L0 0L0 3.293Z" transform="translate(19.527 3.2938)" id="Fill-24" fill="#FFFFFF" fill-rule="evenodd" stroke="none" />
    <path d="M0 3.293L3.294 3.293L3.294 0L0 0L0 3.293Z" transform="translate(21.174 0.0008)" id="Fill-25" fill="#FFFFFF" fill-rule="evenodd" stroke="none" />
  </g>
</svg>