<?xml version="1.0" encoding="utf-8"?>
<svg width="300px" height="300px" viewBox="0 0 300 300" version="1.1" xmlns:xlink="http://www.w3.org/1999/xlink" xmlns="http://www.w3.org/2000/svg">
  <path d="M0 150C0 67.1573 67.1573 0 150 0C232.843 0 300 67.1573 300 150C300 232.843 232.843 300 150 300C67.1573 300 0 232.843 0 150Z" id="Circle" fill="#000000" fill-rule="evenodd" stroke="none" />
  <g id="Group" transform="translate(41.090088 56.150024)">
    <g id="Group" transform="translate(0 108.20001)">
      <path d="M31.6398 0C34.8298 0 37.9398 0.359985 40.9898 1.08002C44.0398 1.81 47.3298 3.04004 50.8598 4.77002L50.8598 14.96C47.4098 12.98 44.2198 11.55 41.2998 10.67C38.3698 9.79004 35.3198 9.35004 32.1398 9.35004C28.1599 9.35004 24.5498 10.17 21.3499 11.82C18.1398 13.47 15.6498 15.79 13.8699 18.78C12.0898 21.78 11.1999 25.1 11.1999 28.77C11.1999 32.52 12.0799 35.87 13.8499 38.84C15.6199 41.8 18.0999 44.1 21.3099 45.72C24.52 47.34 28.1299 48.15 32.1399 48.15C35.22 48.15 38.15 47.71 40.95 46.83C43.7499 45.95 47.27 44.35 51.52 42.06L51.52 52.25C47.8799 54.15 44.54 55.5 41.4899 56.3C38.4399 57.1 34.8799 57.51 30.8199 57.51C24.91 57.51 19.6199 56.34 14.97 53.98C10.3199 51.63 6.65997 48.24 3.98999 43.81C1.32001 39.39 0 34.54 0 29.27C0 23.62 1.37 18.56 4.10998 14.07C6.84998 9.58002 10.62 6.10998 15.43 3.67999C20.2098 1.21997 25.6199 0 31.6398 0L31.6398 0Z" id="Shape" fill="#FFFFFF" fill-rule="evenodd" stroke="none" />
      <path d="M20.55 0C24.4501 0 28.0001 0.820007 31.1801 2.44C34.3701 4.07001 36.8301 6.35999 38.5601 9.29999C40.29 12.24 41.17 15.57 41.17 19.29C41.17 23.17 40.33 26.57 38.66 29.48C36.9901 32.4 34.53 34.69 31.28 36.38C28.03 38.07 24.45 38.91 20.55 38.91C16.6201 38.91 13.05 38.07 9.84003 36.38C6.63001 34.69 4.19 32.4 2.51001 29.48C0.840027 26.56 0 23.17 0 19.29C0 15.52 0.880005 12.17 2.65002 9.23999C4.42004 6.31 6.88 4.03998 10.03 2.41998C13.1901 0.800049 16.6901 0 20.55 0L20.55 0ZM10.3501 19.29C10.3501 23.04 11.2601 26.02 13.1001 28.26C14.9401 30.49 17.3901 31.61 20.4601 31.61C23.6701 31.61 26.2001 30.54 28.0501 28.4C29.9001 26.26 30.8201 23.2 30.8201 19.21C30.8201 15.41 29.8901 12.48 28.0302 10.4C26.1702 8.32996 23.6501 7.28998 20.4702 7.28998C17.4702 7.28998 15.0402 8.38995 13.1702 10.58C11.2901 12.78 10.3501 15.68 10.3501 19.29L10.3501 19.29Z" transform="translate(58.589783 18.579956)" id="Shape" fill="#FFFFFF" fill-rule="evenodd" stroke="none" />
      <path d="M9.87 0L9.87 56.05L0 56.05L0 0L9.87 0L9.87 0Z" transform="translate(107.97986 0.7199707)" id="Shape" fill="#FFFFFF" fill-rule="evenodd" stroke="none" />
      <path d="M9.87 0L9.87 56.05L0 56.05L0 0L9.87 0L9.87 0Z" transform="translate(128.35986 0.7199707)" id="Shape" fill="#FFFFFF" fill-rule="evenodd" stroke="none" />
      <path d="M15.9698 0C20.7899 0 24.4598 1.03003 26.9999 3.07001C29.5399 5.10999 30.8099 7.97003 30.8099 11.63L30.8099 29.96C30.8099 31.38 31.3899 32.09 32.5399 32.09C33.0198 32.09 33.6998 31.88 34.5699 31.47C35.4399 31.05 36.1699 30.58 36.7499 30.04L36.7499 35.73C33.2999 37.84 30.14 38.9 27.28 38.9C25.5099 38.9 24.16 38.61 23.21 38.02C22.2599 37.43 21.6 36.39 21.22 34.89C17.45 37.56 13.67 38.9 9.87 38.9C7.16998 38.9 4.84998 37.9901 2.90997 36.17C0.969971 34.35 0 32.17 0 29.6301C0 26.4001 0.960022 23.8401 2.89001 21.9701C4.81 20.1001 8.19 18.4701 13 17.0701L20.98 14.7401L20.98 13.0101C20.98 9.34009 18.76 7.51007 14.32 7.51007C12.05 7.51007 9.78998 8.03009 7.53998 9.07007C5.28998 10.11 3.25 11.6501 1.40997 13.6801L1.40997 4.82007C5.49988 1.62 10.3599 0 15.9698 0L15.9698 0ZM9.94989 28.16C9.94989 29.52 10.3799 30.6201 11.2499 31.45C12.1199 32.28 13.1999 32.7 14.4799 32.7C16.6498 32.7 18.8099 31.71 20.9799 29.73L20.9799 19.86C18.2299 20.8 16.0699 21.6801 14.4999 22.5101C12.9299 23.3401 11.7899 24.1801 11.0499 25.0401C10.3199 25.89 9.94989 26.93 9.94989 28.16L9.94989 28.16Z" transform="translate(145.93 18.579956)" id="Shape" fill="#FFFFFF" fill-rule="evenodd" stroke="none" />
      <path d="M21.4299 0C22.74 0 24.0299 0.289978 25.2999 0.880005C26.5699 1.47003 28.0499 2.46002 29.73 3.84998L26.1999 12.48C23.34 10.34 21.0399 9.26996 19.2999 9.26996C17.7799 9.26996 16.2699 9.83997 14.7899 10.97C13.3099 12.11 12.1199 13.61 11.22 15.48C10.3199 17.36 9.86999 19.23 9.86999 21.09L9.86999 38.18L0 38.18L0 0.710022L9.86999 0.710022L9.86999 10.26L10.03 10.26C11.8201 6.65002 13.63 4.04004 15.4501 2.41003C17.2699 0.800049 19.2599 0 21.4299 0L21.4299 0Z" transform="translate(188.08997 18.579956)" id="Shape" fill="#FFFFFF" fill-rule="evenodd" stroke="none" />
    </g>
    <path d="M27.16 0L62.06 0L34.89 27.17L0 27.17L27.16 0Z" transform="translate(109.77985 0)" id="Polygon" fill="#D02828" fill-rule="evenodd" stroke="none" />
    <path d="M0 0L29.81 29.81L73.23 29.81L102.84 0.200012L0 0Z" transform="translate(42.029846 54.789978)" id="Polygon" fill="#275BFF" fill-rule="evenodd" stroke="none" />
    <path d="M47.28 0L84.3 0L37.02 47.27L0 47.27L47.28 0Z" transform="translate(42.029846 0)" id="Polygon" fill="#275BFF" fill-rule="evenodd" stroke="none" />
  </g>
</svg>