<?xml version="1.0" encoding="utf-8"?>
<svg width="300px" height="300px" viewBox="0 0 300 300" version="1.1" xmlns:xlink="http://www.w3.org/1999/xlink" xmlns="http://www.w3.org/2000/svg">
  <g id="Group">
    <path d="M0 150C0 67.1573 67.1573 0 150 0C232.843 0 300 67.1573 300 150C300 232.843 232.843 300 150 300C67.1573 300 0 232.843 0 150Z" id="Circle" fill="#FFFFFF" fill-rule="evenodd" stroke="none" />
    <g id="Group" transform="translate(37.369995 76.589966)">
      <path d="M47.14 0L107.68 0L60.55 47.14L0 47.14L47.14 0Z" transform="translate(117.57001 0)" id="Polygon" fill="#D02828" fill-rule="evenodd" stroke="none" />
      <path d="M0 0L51.74 51.74L127.08 51.74L178.46 0.359985L0 0Z" transform="translate(0 95.07007)" id="Polygon" fill="#275BFF" fill-rule="evenodd" stroke="none" />
      <path d="M82.05 0L146.29 0L64.25 82.03L0 82.03L82.05 0Z" id="Polygon" fill="#275BFF" fill-rule="evenodd" stroke="none" />
    </g>
  </g>
</svg>